Coordinates
version=1
nRows=24
nColumns=22
inDegrees=yes

Units are S.I. units (second, meters, Newtons, ...)
If the header above contains a line with 'inDegrees', this indicates whether rotational values are in degrees (yes) or radians (no).

endheader
time	pelvis_tilt	pelvis_list	pelvis_rotation	pelvis_tx	pelvis_ty	pelvis_tz	hip_flexion_r	hip_adduction_r	hip_rotation_r	knee_angle_r	ankle_angle_r	subtalar_angle_r	hip_flexion_l	hip_adduction_l	hip_rotation_l	knee_angle_l	ankle_angle_l	subtalar_angle_l	lumbar_extension	lumbar_bending	lumbar_rotation
      2.73000000	     -0.07717716	     -5.41096458	     22.68549366	     -0.22603855	      0.92740057	      0.15413915	     27.34036443	      5.78244780	      4.11943964	    -26.71577468	      3.31949403	      4.65278498	     -2.07124241	      0.85632364	      6.21291001	    -40.07381864	      5.46038206	      5.09437654	     -4.69282110	      7.16271126	     -6.02251786
      2.74000000	      0.03009507	     -5.53291956	     22.94791982	     -0.21710570	      0.92855107	      0.15073234	     26.68141992	      5.84208195	      3.73344654	    -26.74331208	      3.64330506	      4.64404009	     -0.61372451	      0.38427521	      5.17412969	    -42.94813283	      3.59525553	      6.48242913	     -4.79181253	      7.47511340	     -5.81572710
      2.75000000	      0.16563173	     -5.66891509	     23.19782016	     -0.20840589	      0.92969006	      0.14752899	     25.96904546	      5.95573939	      3.36262968	    -26.69265234	      4.00140155	      4.52616666	      0.96252894	     -0.21840018	      4.01305123	    -45.89396527	      2.00064950	      7.57488756	     -4.95087622	      7.78075650	     -5.53087083
      2.76000000	      0.32745444	     -5.81630463	     23.42284637	     -0.19992520	      0.93080640	      0.14454903	     25.21320340	      6.12754732	      3.03475520	    -26.57905103	      4.38229681	      4.31634235	      2.62510021	     -0.94428720	      2.77618292	    -48.85743342	      0.74163058	      8.30450091	     -5.16805263	      8.07423114	     -5.17188874
      2.77000000	      0.51117672	     -5.96705127	     23.61081064	     -0.19162324	      0.93190908	      0.14178590	     24.42072865	      6.34755265	      2.75181767	    -26.41193425	      4.77204703	      4.05299196	      4.33610295	     -1.78635211	      1.47424065	    -51.77476704	     -0.14798202	      8.62350680	     -5.43457076	      8.34320092	     -4.74164561
      2.78000000	      0.67221251	     -6.11697300	     23.76663321	     -0.18354373	      0.93291572	      0.13920980	     23.66185444	      6.59100422	      2.53635655	    -26.24194210	      5.20485945	      3.62118206	      6.12428428	     -2.67603645	      0.21574344	    -54.62268313	     -0.69921071	      8.50755562	     -5.70451098	      8.56771394	     -4.23706719
      2.79000000	      0.85227406	     -6.24453593	     23.87225767	     -0.17557494	      0.93395801	      0.13677557	     22.86078306	      6.85476102	      2.40228507	    -26.03292182	      5.61605274	      3.16692061	      7.88556854	     -3.61953500	     -1.05141681	    -57.31422425	     -0.95594976	      7.89618480	     -6.01743398	      8.74819689	     -3.68515986
      2.80000000	      1.03077975	     -6.34385710	     23.93226516	     -0.16773973	      0.93502024	      0.13443497	     22.05431542	      7.11491437	      2.34013467	    -25.81904141	      6.01322431	      2.75384746	      9.62319835	     -4.55676638	     -2.25158710	    -59.82344340	     -0.94066689	      6.96421052	     -6.35493354	      8.87253372	     -3.05495117
      2.81000000	      1.19162712	     -6.39339627	     23.95409115	     -0.15999498	      0.93612393	      0.13212160	     21.23489817	      7.33756048	      2.35823119	    -25.58687785	      6.41540416	      2.32947033	     11.31893178	     -5.44663697	     -3.39324696	    -62.10311984	     -0.72475285	      5.77587150	     -6.69399877	      8.91835085	     -2.41943654
      2.82000000	      1.33066800	     -6.39593824	     23.94944315	     -0.15235383	      0.93726848	      0.12977410	     20.41444510	      7.51172640	      2.43537285	    -25.34850247	      6.80017726	      1.92366297	     12.97043917	     -6.25765717	     -4.44506549	    -64.13321265	     -0.34431860	      4.48928558	     -7.02669966	      8.89359791	     -1.76967120
      2.83000000	      1.44353426	     -6.35310355	     23.93350680	     -0.14481885	      0.93845750	      0.12734493	     19.59255519	      7.62774531	      2.55495423	    -25.09660034	      7.16808896	      1.54323345	     14.57736527	     -6.96393749	     -5.38804606	    -65.89469403	      0.14143563	      3.21723966	     -7.34189606	      8.80351069	     -1.12259089
      2.84000000	      1.53187228	     -6.27341313	     23.91391490	     -0.13737605	      0.93968193	      0.12480377	     18.76667196	      7.68563047	      2.69141632	    -24.82308488	      7.51591972	      1.18866485	     16.13734963	     -7.56419737	     -6.22606584	    -67.37692443	      0.68146867	      2.03853040	     -7.63351452	      8.66175529	     -0.49524842
      2.85000000	      1.60070084	     -6.15913998	     23.91509384	     -0.13003520	      0.94094032	      0.12208867	     17.92154774	      7.68099614	      2.83417889	    -24.50938023	      7.86788791	      0.86455097	     17.64413214	     -8.04309092	     -6.94463948	    -68.56780869	      1.25728638	      1.02716986	     -7.90010039	      8.48245355	      0.07718390
      2.86000000	      1.65765014	     -6.01381906	     23.95481998	     -0.12281969	      0.94221630	      0.11919259	     17.05574453	      7.61415247	      2.95487323	    -24.15974736	      8.21032479	      0.55371310	     19.09781553	     -8.38402434	     -7.51281643	    -69.47117192	      1.84807061	      0.17858535	     -8.15218565	      8.27047616	      0.60387873
      2.87000000	      1.70972164	     -5.86165855	     24.01387919	     -0.11568645	      0.94348023	      0.11614418	     16.17892783	      7.50964571	      3.01083399	    -23.78149289	      8.53037280	      0.36309166	     20.49098021	     -8.64448743	     -7.98671995	    -70.08935352	      2.48087427	     -0.35948203	     -8.38765363	      8.05588821	      1.10651530
      2.88000000	      1.74455371	     -5.68817263	     24.13219809	     -0.10865748	      0.94471348	      0.11289675	     15.26796420	      7.35139339	      3.04044283	    -23.32846892	      8.88692451	      0.05150808	     21.83765082	     -8.78119778	     -8.33454913	    -70.41822543	      2.95653834	     -0.94607132	     -8.59433892	      7.82276574	      1.50809124
      2.89000000	      1.76380231	     -5.51872891	     24.29147971	     -0.10173176	      0.94585056	      0.10950020	     14.37015054	      7.16064457	      2.98502830	    -22.86146781	      9.28140414	     -0.02828049	     23.14633247	     -8.83702784	     -8.57070236	    -70.48270787	      3.45684334	     -1.14664525	     -8.77257542	      7.59318726	      1.86940972
      2.90000000	      1.77623862	     -5.36513545	     24.46954418	     -0.09486596	      0.94688842	      0.10599633	     13.47376897	      6.96958554	      2.88837014	    -22.36715835	      9.65627257	     -0.13328331	     24.39402318	     -8.85467156	     -8.74777442	    -70.27810228	      3.91387764	     -1.34623805	     -8.92660124	      7.38092645	      2.21854476
      2.91000000	      1.82509081	     -5.20027218	     24.68332378	     -0.08804831	      0.94789294	      0.10235626	     12.53285387	      6.76150015	      2.68004096	    -21.86054854	     10.02288913	     -0.34350265	     25.51552085	     -8.83063396	     -8.86411492	    -69.80029770	      4.32317445	     -1.56306450	     -9.11706636	      7.17740285	      2.55680878
      2.92000000	      1.83228768	     -5.06437005	     24.91105217	     -0.08127262	      0.94871708	      0.09867922	     11.63561283	      6.56698123	      2.50234386	    -21.33384657	     10.39330079	     -0.47372712	     26.61575417	     -8.78479484	     -8.92599337	    -69.07930531	      4.67484514	     -1.65989623	     -9.24327661	      6.97993281	      2.85620541
      2.93000000	      1.83940301	     -4.94238887	     25.14875442	     -0.07452051	      0.94942022	      0.09493788	     10.74863452	      6.38141052	      2.28826608	    -20.81079428	     10.75370545	     -0.57606791	     27.62919756	     -8.72968491	     -8.94902500	    -68.11203164	      4.99582991	     -1.69998659	     -9.36113446	      6.79420343	      3.14871398
      2.94000000	      1.83767614	     -4.84232403	     25.38738380	     -0.06778609	      0.94996559	      0.09116515	      9.89219534	      6.21581402	      2.06332211	    -20.30817732	     11.11360216	     -0.64927245	     28.56745539	     -8.67775505	     -8.94089400	    -66.91506495	      5.28998252	     -1.71298779	     -9.45972297	      6.61970051	      3.45256322
      2.95000000	      1.84046548	     -4.74791929	     25.62705796	     -0.06103536	      0.95039537	      0.08733529	      9.03369372	      6.06028760	      1.83218359	    -19.80922923	     11.46066902	     -0.71656509	     29.39476807	     -8.63172833	     -8.92508523	    -65.48301951	      5.55031738	     -1.70596275	     -9.55550591	      6.45008608	      3.75490901
      2.96000000	      1.84018245	     -4.66954151	     25.85303789	     -0.05425568	      0.95068622	      0.08349586	      8.18832037	      5.92882128	      1.61640182	    -19.31776448	     11.79127833	     -0.78206268	     30.12116275	     -8.60454641	     -8.90705021	    -63.82770191	      5.77356300	     -1.69791817	     -9.63807108	      6.28241208	      4.06354485
